<?xml version="1.0" standalone="no"?>
<!DOCTYPE svg PUBLIC "-//W3C//DTD SVG 20010904//EN"
 "http://www.w3.org/TR/2001/REC-SVG-20010904/DTD/svg10.dtd">
<svg version="1.0" xmlns="http://www.w3.org/2000/svg"
 width="250.000000pt" height="250.000000pt" viewBox="0 0 250.000000 250.000000"
 preserveAspectRatio="xMidYMid meet">
<metadata>
Created by potrace 1.11, written by Peter Selinger 2001-2013
</metadata>
<g transform="translate(0.000000,250.000000) scale(0.100000,-0.100000)"
fill="#000000" stroke="none">
<path d="M67 2072 c-16 -3 -19 -16 -19 -87 0 -63 1 -65 32 -65 20 0 34 -8 45
-24 13 -20 54 -146 85 -261 4 -16 33 -118 65 -225 31 -107 79 -271 106 -365
27 -93 56 -192 64 -219 8 -26 15 -54 15 -61 0 -10 19 -13 75 -12 l75 2 31 100
c17 55 53 171 80 257 27 87 54 178 60 203 6 26 15 43 19 38 4 -4 40 -120 79
-258 40 -137 79 -271 87 -296 l14 -46 74 1 74 0 12 41 c6 22 43 139 82 260 90
282 124 390 140 443 10 33 17 42 33 40 43 -6 45 -27 42 -513 l-2 -460 -85 0
-84 0 -1 -79 0 -78 330 0 c182 1 349 1 373 2 l43 0 -3 78 -3 77 -92 0 -93 0
-1 30 c-3 128 0 375 5 383 10 17 72 -8 117 -46 47 -40 77 -96 86 -155 3 -23 9
-45 14 -48 5 -3 35 -4 66 -4 l58 2 0 319 0 319 -63 3 c-65 3 -67 2 -76 -48
-16 -91 -90 -170 -175 -185 -21 -4 -31 -1 -32 7 -4 61 -1 340 5 361 7 30 32
40 106 41 103 3 221 -52 309 -144 43 -45 69 -102 77 -173 7 -63 9 -64 88 -59
l51 4 0 269 c0 148 -2 269 -5 270 -3 1 -230 2 -505 4 -275 1 -503 3 -507 4 -3
0 6 38 21 83 27 79 65 128 99 128 7 0 12 15 13 38 0 20 2 52 3 70 2 17 1 32
-3 32 -3 1 -105 1 -226 1 l-220 1 -3 -74 -3 -74 28 -2 c39 -3 95 -22 110 -38
7 -7 13 -20 13 -30 0 -21 -119 -443 -131 -464 -7 -13 -9 -13 -9 0 -2 17 -2 18
-31 125 -11 44 -22 87 -24 95 -2 8 -17 68 -34 132 -36 136 -37 149 -13 171 18
16 20 17 50 17 15 0 18 9 17 64 0 36 -3 68 -7 71 -6 6 -991 13 -1021 7z m550
-168 c46 -23 57 -42 83 -155 l23 -95 -27 -90 c-15 -49 -35 -114 -45 -144 l-18
-55 -16 50 c-8 28 -32 104 -52 170 -20 66 -40 129 -45 140 -4 11 -13 40 -20
65 -7 25 -17 58 -23 74 -9 24 -8 31 8 42 26 19 90 18 132 -2z"/>
</g>
</svg>
